{
  "accessors": [
    {
      "bufferView": 2,
      "componentType": 5126,
      "count": 3201,
      "max": [50.000003814697266, 50.00000762939453, 49.999996185302734],
      "min": [-50.000003814697266, -70.43848419189453, -49.999996185302734],
      "type": "VEC3"
    },
    {
      "bufferView": 2,
      "byteOffset": 38412,
      "componentType": 5126,
      "count": 3201,
      "max": [1.0, 1.0, 1.0],
      "min": [-1.0, -1.0, -1.0],
      "type": "VEC3"
    },
    {
      "bufferView": 1,
      "componentType": 5126,
      "count": 3201,
      "max": [0.875, 1.0],
      "min": [0.125, 0.0],
      "type": "VEC2"
    },
    {
      "bufferView": 0,
      "componentType": 5125,
      "count": 18432,
      "type": "SCALAR"
    }
  ],
  "asset": {
    "extras": {
      "author": "Cxrly97 (https://sketchfab.com/Cxrly97)",
      "license": "CC-BY-4.0 (http://creativecommons.org/licenses/by/4.0/)",
      "source": "https://sketchfab.com/3d-models/arctic-tooltip-1046c33c2cb44de29a097d7f98659633",
      "title": "Arctic Tooltip"
    },
    "generator": "Sketchfab-12.59.0",
    "version": "2.0"
  },
  "bufferViews": [
    {
      "buffer": 0,
      "byteLength": 73728,
      "name": "floatBufferViews",
      "target": 34963
    },
    {
      "buffer": 0,
      "byteLength": 25608,
      "byteOffset": 73728,
      "byteStride": 8,
      "name": "floatBufferViews",
      "target": 34962
    },
    {
      "buffer": 0,
      "byteLength": 76824,
      "byteOffset": 99336,
      "byteStride": 12,
      "name": "floatBufferViews",
      "target": 34962
    }
  ],
  "buffers": [
    {
      "byteLength": 176160,
      "uri": "scene.bin"
    }
  ],
  "materials": [
    {
      "doubleSided": true,
      "name": "lambert4",
      "pbrMetallicRoughness": {
        "baseColorFactor": [1.0, 0.70839, 0.564708, 1.0],
        "metallicFactor": 0.0,
        "roughnessFactor": 0.6
      }
    }
  ],
  "meshes": [
    {
      "name": "Arctic_Tooltip_lambert4_0",
      "primitives": [
        {
          "attributes": {
            "NORMAL": 1,
            "POSITION": 0,
            "TEXCOORD_0": 2
          },
          "indices": 3,
          "material": 0,
          "mode": 4
        }
      ]
    }
  ],
  "nodes": [
    {
      "children": [1],
      "matrix": [
        1.0, 0.0, 0.0, 0.0, 0.0, 2.220446049250313e-16, -1.0, 0.0, 0.0, 1.0,
        2.220446049250313e-16, 0.0, 0.0, 0.0, 0.0, 1.0
      ],
      "name": "Sketchfab_model"
    },
    {
      "children": [2],
      "matrix": [
        1.0, 0.0, 0.0, 0.0, 0.0, 0.0, 1.0, 0.0, 0.0, -1.0, 0.0, 0.0, 0.0, 0.0,
        0.0, 1.0
      ],
      "name": "adcdd7c6fef849f08dc5d70d0af81d2d.fbx"
    },
    {
      "children": [3],
      "name": "RootNode"
    },
    {
      "children": [4],
      "matrix": [
        0.010850013233721256, 0.0, 0.0, 0.0, 0.0, 0.010850013233721256, 0.0,
        0.0, 0.0, 0.0, 0.0009921801974996924, 0.0, 0.0, 1.3646721839904785, 0.0,
        1.0
      ],
      "name": "Arctic_Tooltip"
    },
    {
      "mesh": 0,
      "name": "Arctic_Tooltip_lambert4_0"
    }
  ],
  "scene": 0,
  "scenes": [
    {
      "name": "Sketchfab_Scene",
      "nodes": [0]
    }
  ]
}
