{
  "accessors": [
    {
      "bufferView": 2,
      "componentType": 5126,
      "count": 16,
      "max": [3.476639986038208, -3.0243799686431885, 11.353400230407715],
      "min": [-3.476639986038208, -4.653779983520508, 9.389410018920898],
      "type": "VEC3"
    },
    {
      "bufferView": 2,
      "byteOffset": 192,
      "componentType": 5126,
      "count": 16,
      "max": [0.7213178277015686, -0.49765411019325256, 0.7891982197761536],
      "min": [-0.7213178277015686, -0.843713104724884, 0.431142657995224],
      "type": "VEC3"
    },
    {
      "bufferView": 1,
      "componentType": 5126,
      "count": 16,
      "max": [0.41290101408958435, -0.20461000502109528],
      "min": [0.06077900156378746, -0.8654509782791138],
      "type": "VEC2"
    },
    {
      "bufferView": 0,
      "componentType": 5125,
      "count": 42,
      "type": "SCALAR"
    },
    {
      "bufferView": 2,
      "byteOffset": 384,
      "componentType": 5126,
      "count": 619,
      "max": [8.058799743652344, 18.600400924682617, 14.829099655151367],
      "min": [-8.058799743652344, -5.808310031890869, 0.0],
      "type": "VEC3"
    },
    {
      "bufferView": 2,
      "byteOffset": 7812,
      "componentType": 5126,
      "count": 619,
      "max": [1.0, 1.0, 1.0],
      "min": [-1.0, -1.0, -1.0],
      "type": "VEC3"
    },
    {
      "bufferView": 1,
      "byteOffset": 128,
      "componentType": 5126,
      "count": 619,
      "max": [0.9917320013046265, 0.9885519742965698],
      "min": [0.0224629994481802, 0.012474000453948975],
      "type": "VEC2"
    },
    {
      "bufferView": 0,
      "byteOffset": 168,
      "componentType": 5125,
      "count": 2940,
      "type": "SCALAR"
    },
    {
      "bufferView": 2,
      "byteOffset": 15240,
      "componentType": 5126,
      "count": 619,
      "max": [8.058799743652344, 18.600400924682617, 14.829099655151367],
      "min": [-8.058799743652344, -5.808310031890869, 0.0],
      "type": "VEC3"
    },
    {
      "bufferView": 2,
      "byteOffset": 22668,
      "componentType": 5126,
      "count": 619,
      "max": [1.0, 1.0, 1.0],
      "min": [-1.0, -1.0, -1.0],
      "type": "VEC3"
    },
    {
      "bufferView": 1,
      "byteOffset": 5080,
      "componentType": 5126,
      "count": 619,
      "max": [0.9917320013046265, 0.9885519742965698],
      "min": [0.0224629994481802, 0.012474000453948975],
      "type": "VEC2"
    },
    {
      "bufferView": 0,
      "byteOffset": 11928,
      "componentType": 5125,
      "count": 2940,
      "type": "SCALAR"
    },
    {
      "bufferView": 2,
      "byteOffset": 30096,
      "componentType": 5126,
      "count": 16,
      "max": [3.476639986038208, -3.0243799686431885, 11.353400230407715],
      "min": [-3.476639986038208, -4.653779983520508, 9.389410018920898],
      "type": "VEC3"
    },
    {
      "bufferView": 2,
      "byteOffset": 30288,
      "componentType": 5126,
      "count": 16,
      "max": [0.7213178277015686, -0.49765411019325256, 0.7891982197761536],
      "min": [-0.7213178277015686, -0.843713104724884, 0.431142657995224],
      "type": "VEC3"
    },
    {
      "bufferView": 1,
      "byteOffset": 10032,
      "componentType": 5126,
      "count": 16,
      "max": [0.41290101408958435, -0.20461000502109528],
      "min": [0.06077900156378746, -0.8654509782791138],
      "type": "VEC2"
    },
    {
      "bufferView": 0,
      "byteOffset": 23688,
      "componentType": 5125,
      "count": 42,
      "type": "SCALAR"
    }
  ],
  "asset": {
    "extras": {
      "author": "nguyenlouis32 (https://sketchfab.com/nguyenlouis32)",
      "license": "CC-BY-4.0 (http://creativecommons.org/licenses/by/4.0/)",
      "source": "https://sketchfab.com/3d-models/marill-503025b73f774098aa8b42a316e4b4b4",
      "title": "Marill"
    },
    "generator": "Sketchfab-13.31.0",
    "version": "2.0"
  },
  "bufferViews": [
    {
      "buffer": 0,
      "byteLength": 23856,
      "name": "floatBufferViews",
      "target": 34963
    },
    {
      "buffer": 0,
      "byteLength": 10160,
      "byteOffset": 23856,
      "byteStride": 8,
      "name": "floatBufferViews",
      "target": 34962
    },
    {
      "buffer": 0,
      "byteLength": 30480,
      "byteOffset": 34016,
      "byteStride": 12,
      "name": "floatBufferViews",
      "target": 34962
    }
  ],
  "buffers": [
    {
      "byteLength": 64496,
      "uri": "scene.bin"
    }
  ],
  "images": [
    {
      "uri": "textures/pm0183_00_fi_eye_001_baseColor.png"
    },
    {
      "uri": "textures/pm0183_00_fi_body_001_baseColor.png"
    }
  ],
  "materials": [
    {
      "doubleSided": true,
      "name": "pm0183_00_fi_eye_001",
      "pbrMetallicRoughness": {
        "baseColorTexture": {
          "index": 0
        },
        "metallicFactor": 0.0
      }
    },
    {
      "doubleSided": true,
      "name": "pm0183_00_fi_body_001",
      "pbrMetallicRoughness": {
        "baseColorTexture": {
          "index": 1
        },
        "metallicFactor": 0.0
      }
    }
  ],
  "meshes": [
    {
      "name": "Object_0",
      "primitives": [
        {
          "attributes": {
            "NORMAL": 1,
            "POSITION": 0,
            "TEXCOORD_0": 2
          },
          "indices": 3,
          "material": 0,
          "mode": 4
        }
      ]
    },
    {
      "name": "Object_1",
      "primitives": [
        {
          "attributes": {
            "NORMAL": 5,
            "POSITION": 4,
            "TEXCOORD_0": 6
          },
          "indices": 7,
          "material": 1,
          "mode": 4
        }
      ]
    },
    {
      "name": "Object_2",
      "primitives": [
        {
          "attributes": {
            "NORMAL": 9,
            "POSITION": 8,
            "TEXCOORD_0": 10
          },
          "indices": 11,
          "material": 1,
          "mode": 4
        }
      ]
    },
    {
      "name": "Object_3",
      "primitives": [
        {
          "attributes": {
            "NORMAL": 13,
            "POSITION": 12,
            "TEXCOORD_0": 14
          },
          "indices": 15,
          "material": 0,
          "mode": 4
        }
      ]
    }
  ],
  "nodes": [
    {
      "children": [1],
      "matrix": [
        1.0, 0.0, 0.0, 0.0, 0.0, -1.0, -4.440892098500626e-16, 0.0, 0.0,
        4.440892098500626e-16, -1.0, 0.0, 0.0, 0.0, 0.0, 1.0
      ],
      "name": "Sketchfab_model"
    },
    {
      "children": [2],
      "matrix": [
        1.0, 0.0, 0.0, 0.0, 0.0, -4.371139006309477e-8, 0.999999999999999, 0.0,
        0.0, -0.999999999999999, -4.371139006309477e-8, 0.0, 0.0, 0.0, 0.0, 1.0
      ],
      "name": "Collada visual scene group"
    },
    {
      "children": [3, 4, 5, 6],
      "name": "Object_2"
    },
    {
      "mesh": 0,
      "name": "Object_3"
    },
    {
      "mesh": 1,
      "name": "Object_4"
    },
    {
      "mesh": 2,
      "name": "Object_5"
    },
    {
      "mesh": 3,
      "name": "Object_6"
    }
  ],
  "samplers": [
    {
      "magFilter": 9729,
      "minFilter": 9987,
      "wrapS": 10497,
      "wrapT": 10497
    }
  ],
  "scene": 0,
  "scenes": [
    {
      "name": "Sketchfab_Scene",
      "nodes": [0]
    }
  ],
  "textures": [
    {
      "sampler": 0,
      "source": 0
    },
    {
      "sampler": 0,
      "source": 1
    }
  ]
}
