<svg id="visual" viewBox="0 0 960 540" width="960" height="540" xmlns="http://www.w3.org/2000/svg" xmlns:xlink="http://www.w3.org/1999/xlink" version="1.1"><rect x="0" y="0" width="960" height="540" fill="#002233"></rect><path d="M466 540L482.3 537.2C498.7 534.3 531.3 528.7 594.5 522.8C657.7 517 751.3 511 661 505.2C570.7 499.3 296.3 493.7 162 487.8C27.7 482 33.3 476 107.3 470.2C181.3 464.3 323.7 458.7 319.7 452.8C315.7 447 165.3 441 209.8 435.2C254.3 429.3 493.7 423.7 548.3 418C603 412.3 473 406.7 436.5 400.8C400 395 457 389 456.5 383.2C456 377.3 398 371.7 433.8 365.8C469.7 360 599.3 354 551 348.2C502.7 342.3 276.3 336.7 302.5 331C328.7 325.3 607.3 319.7 633.3 313.8C659.3 308 432.7 302 315.7 296.2C198.7 290.3 191.3 284.7 165.8 278.8C140.3 273 96.7 267 190 261.2C283.3 255.3 513.7 249.7 597.5 243.8C681.3 238 618.7 232 640.3 226.2C662 220.3 768 214.7 800 209C832 203.3 790 197.7 749.2 191.8C708.3 186 668.7 180 695.5 174.2C722.3 168.3 815.7 162.7 774.5 156.8C733.3 151 557.7 145 543.3 139.2C529 133.3 676 127.7 741.7 122C807.3 116.3 791.7 110.7 790.7 104.8C789.7 99 803.3 93 706.5 87.2C609.7 81.3 402.3 75.7 299 69.8C195.7 64 196.3 58 235.5 52.2C274.7 46.3 352.3 40.7 320 34.8C287.7 29 145.3 23 103.7 17.2C62 11.3 121 5.7 150.5 2.8L180 0" fill="none" stroke-linecap="round" stroke-linejoin="miter" stroke="#0066FF" stroke-width="1"></path></svg>