<svg id="visual" viewBox="0 0 960 540" width="960" height="540" xmlns="http://www.w3.org/2000/svg" xmlns:xlink="http://www.w3.org/1999/xlink" version="1.1"><rect x="0" y="0" width="960" height="540" fill="#002233"></rect><path d="M0 261L5.2 270.2C10.3 279.3 20.7 297.7 31 333.2C41.3 368.7 51.7 421.3 62 370.5C72.3 319.7 82.7 165.3 93 89.7C103.3 14 113.7 17 124 58.5C134.3 100 144.7 180 155 177.8C165.3 175.7 175.7 91.3 186 116.5C196.3 141.7 206.7 276.3 217 307C227.3 337.7 237.7 264.3 248 243.8C258.3 223.3 268.7 255.7 279 255.5C289.3 255.3 299.7 222.7 310 242.7C320.3 262.7 330.7 335.3 341 308C351.3 280.7 361.7 153.3 372 168.2C382.3 183 392.7 340 403 354.8C413.3 369.7 423.7 242.3 434 176.5C444.3 110.7 454.7 106.3 464.8 91.8C475 77.3 485 52.7 495.2 105.2C505.3 157.7 515.7 287.3 526 334.5C536.3 381.7 546.7 346.3 557 358.5C567.3 370.7 577.7 430.3 588 448.3C598.3 466.3 608.7 442.7 619 419.7C629.3 396.7 639.7 374.3 650 389.3C660.3 404.3 670.7 456.7 681 433.5C691.3 410.3 701.7 311.7 712 303.7C722.3 295.7 732.7 378.3 743 415.3C753.3 452.3 763.7 443.7 774 443.2C784.3 442.7 794.7 450.3 805 395.8C815.3 341.3 825.7 224.7 836 166.5C846.3 108.3 856.7 108.7 867 130.7C877.3 152.7 887.7 196.3 898 178.2C908.3 160 918.7 80 929 56.7C939.3 33.3 949.7 66.7 954.8 83.3L960 100" fill="none" stroke-linecap="round" stroke-linejoin="miter" stroke="#0066FF" stroke-width="1"></path></svg>