<svg id="visual" viewBox="0 0 960 540" width="960" height="540" xmlns="http://www.w3.org/2000/svg" xmlns:xlink="http://www.w3.org/1999/xlink" version="1.1"><rect x="0" y="0" width="960" height="540" fill="#002233"></rect><path d="M496 0L479.7 2.8C463.3 5.7 430.7 11.3 367.5 17.2C304.3 23 210.7 29 301 34.8C391.3 40.7 665.7 46.3 800 52.2C934.3 58 928.7 64 854.7 69.8C780.7 75.7 638.3 81.3 642.3 87.2C646.3 93 796.7 99 752.2 104.8C707.7 110.7 468.3 116.3 413.7 122C359 127.7 489 133.3 525.5 139.2C562 145 505 151 505.5 156.8C506 162.7 564 168.3 528.2 174.2C492.3 180 362.7 186 411 191.8C459.3 197.7 685.7 203.3 659.5 209C633.3 214.7 354.7 220.3 328.7 226.2C302.7 232 529.3 238 646.3 243.8C763.3 249.7 770.7 255.3 796.2 261.2C821.7 267 865.3 273 772 278.8C678.7 284.7 448.3 290.3 364.5 296.2C280.7 302 343.3 308 321.7 313.8C300 319.7 194 325.3 162 331C130 336.7 172 342.3 212.8 348.2C253.7 354 293.3 360 266.5 365.8C239.7 371.7 146.3 377.3 187.5 383.2C228.7 389 404.3 395 418.7 400.8C433 406.7 286 412.3 220.3 418C154.7 423.7 170.3 429.3 171.3 435.2C172.3 441 158.7 447 255.5 452.8C352.3 458.7 559.7 464.3 663 470.2C766.3 476 765.7 482 726.5 487.8C687.3 493.7 609.7 499.3 642 505.2C674.3 511 816.7 517 858.3 522.8C900 528.7 841 534.3 811.5 537.2L782 540" fill="none" stroke-linecap="round" stroke-linejoin="miter" stroke="#0066FF" stroke-width="1"></path></svg>