<svg id="visual" viewBox="0 0 960 540" width="960" height="540" xmlns="http://www.w3.org/2000/svg" xmlns:xlink="http://www.w3.org/1999/xlink" version="1.1"><rect x="0" y="0" width="960" height="540" fill="#002233"></rect><path d="M0 277L5.2 267.8C10.3 258.7 20.7 240.3 31 204.8C41.3 169.3 51.7 116.7 62 167.5C72.3 218.3 82.7 372.7 93 448.3C103.3 524 113.7 521 124 479.5C134.3 438 144.7 358 155 360.2C165.3 362.3 175.7 446.7 186 421.5C196.3 396.3 206.7 261.7 217 231C227.3 200.3 237.7 273.7 248 294.2C258.3 314.7 268.7 282.3 279 282.5C289.3 282.7 299.7 315.3 310 295.3C320.3 275.3 330.7 202.7 341 230C351.3 257.3 361.7 384.7 372 369.8C382.3 355 392.7 198 403 183.2C413.3 168.3 423.7 295.7 434 361.5C444.3 427.3 454.7 431.7 464.8 446.2C475 460.7 485 485.3 495.2 432.8C505.3 380.3 515.7 250.7 526 203.5C536.3 156.3 546.7 191.7 557 179.5C567.3 167.3 577.7 107.7 588 89.7C598.3 71.7 608.7 95.3 619 118.3C629.3 141.3 639.7 163.7 650 148.7C660.3 133.7 670.7 81.3 681 104.5C691.3 127.7 701.7 226.3 712 234.3C722.3 242.3 732.7 159.7 743 122.7C753.3 85.7 763.7 94.3 774 94.8C784.3 95.3 794.7 87.7 805 142.2C815.3 196.7 825.7 313.3 836 371.5C846.3 429.7 856.7 429.3 867 407.3C877.3 385.3 887.7 341.7 898 359.8C908.3 378 918.7 458 929 481.3C939.3 504.7 949.7 471.3 954.8 454.7L960 438" fill="none" stroke-linecap="round" stroke-linejoin="miter" stroke="#0066FF" stroke-width="1"></path></svg>